#!OML:ASF H:\ManfredObstacles\Project 1\Capture day 2\Session 1\male.ASF
:FULLY-SPECIFIED
:DEGREES
450
root 1.84104 11.6192 -10.0533 -143.189 3.00465 176.591
lowerback 30.6805 4.44302 -5.1989
upperback 13.3072 7.95876 0.331315
thorax -2.16662 4.97205 0.775558
lowerneck -35.6105 -4.98829 -2.97009
upperneck 19.5109 -6.07373 2.38644
head 12.3478 -2.55898 0.18229
rclavicle -9.54166e-015 -4.13472e-014
rhumerus 25.4696 -22.0695 -80.5071
rradius 22.4337
rwrist 39.2119
rhand -3.52695 -2.74544
rfingers 7.12502
rthumb 22.2082 -31.4896
lclavicle -9.54166e-015 -4.13472e-014
lhumerus 2.07034 -19.5137 77.0223
lradius 68.9203
lwrist -28.5395
lhand -26.5288 9.59883
lfingers 7.12502
lthumb 0.0349896 39.5786
rfemur -19.2746 3.28747 17.2799
rtibia 72.53
rfoot 10.5237 -2.05533
rtoes -29.6265
lfemur -91.1315 -3.50725 -25.4291
ltibia 106.554
lfoot -7.74483 36.9781
ltoes -9.36592
451
root 1.82324 11.7502 -10.211 -143.168 2.86625 176.735
lowerback 30.9164 4.28708 -4.98142
upperback 12.947 7.66804 0.346414
thorax -2.65754 4.81106 0.708703
lowerneck -35.356 -4.85349 -2.84562
upperneck 19.4945 -5.93038 2.29484
head 12.2884 -2.50297 0.160455
rclavicle 1.59028e-014 -5.96354e-015
rhumerus 23.3263 -20.6464 -79.4177
rradius 23.4125
rwrist 37.8047
rhand -3.51351 -2.94306
rfingers 7.12502
rthumb 22.2211 -31.6857
lclavicle 1.59028e-014 -5.96354e-015
lhumerus 1.48507 -19.6704 77.5597
lradius 69.6381
lwrist -28.4916
lhand -26.4956 9.56679
lfingers 7.12502
lthumb 0.0670489 39.5465
rfemur -20.8825 3.18423 17.4669
rtibia 74.7925
rfoot 11.5103 -1.77377
rtoes -28.86
lfemur -89.4941 -3.64279 -25.2692
ltibia 105.3
lfoot -7.88543 37.1575
ltoes -9.17856
452
root 1.80689 11.8829 -10.3711 -143.226 2.7113 176.789
lowerback 31.2073 4.11262 -4.76119
upperback 12.6053 7.37034 0.333921
thorax -3.14647 4.65126 0.612578
lowerneck -35.1523 -4.71923 -2.64165
upperneck 19.4953 -5.82063 2.18613
head 12.242 -2.45675 0.111833
rclavicle -2.70347e-014 1.59028e-015
rhumerus 21.1317 -19.4535 -78.5588
rradius 24.5184
rwrist 36.4651
rhand -3.62206 -3.17473
rfingers 7.12502
rthumb 22.1169 -31.9298
lclavicle -2.70347e-014 1.59028e-015
lhumerus 1.00112 -19.9584 78.0203
lradius 70.401
lwrist -28.5226
lhand -26.4674 9.49108
lfingers 7.12502
lthumb 0.094293 39.4708
rfemur -22.6064 2.93828 17.5845
rtibia 77.4002
rfoot 11.7604 -1.98315
rtoes -28.2577
lfemur -87.7717 -3.85478 -25.1444
ltibia 103.972
lfoot -7.87218 37.2413
ltoes -9.0601
453
root 1.7929 12.017 -10.5334 -143.386 2.55555 176.721
lowerback 31.5736 3.9256 -4.59895
upperback 12.2863 7.05643 0.305087
thorax -3.64445 4.48653 0.535333
lowerneck -34.9446 -4.57436 -2.38612
upperneck 19.4872 -5.7183 2.06976
head 12.1901 -2.4108 0.0508018
rclavicle -5.24792e-014 5.1684e-014
rhumerus 18.8352 -18.4342 -77.874
rradius 25.7912
rwrist 35.1238
rhand -3.81559 -3.44673
rfingers 7.12502
rthumb 21.931 -32.2236
lclavicle -5.24792e-014 5.1684e-014
lhumerus 0.5955 -20.3234 78.4454
lradius 71.2116
lwrist -28.6183
lhand -26.4192 9.35853
lfingers 7.12502
lthumb 0.140869 39.3382
rfemur -24.4159 2.56904 17.5976
rtibia 80.2973
rfoot 11.3947 -2.62093
rtoes -27.8174
lfemur -85.9089 -4.14608 -25.1065
ltibia 102.559
lfoot -7.7013 37.2627
ltoes -8.99163
454
root 1.78202 12.1527 -10.6983 -143.64 2.40449 176.538
lowerback 32.003 3.72862 -4.50855
upperback 11.9963 6.72614 0.264091
thorax -4.14007 4.31706 0.492001
lowerneck -34.7528 -4.42187 -2.10029
upperneck 19.4715 -5.61766 1.95008
head 12.1372 -2.36352 -0.0168156
rclavicle -1.27222e-014 -3.97569e-016
rhumerus 16.4279 -17.5492 -77.3368
rradius 27.2347
rwrist 33.6956
rhand -4.07703 -3.77817
rfingers 7.12502
rthumb 21.68 -32.5843
lclavicle -1.27222e-014 -3.97569e-016
lhumerus 0.286667 -20.7447 78.8286
lradius 72.0612
lwrist -28.7514
lhand -26.3454 9.15896
lfingers 7.12502
lthumb 0.212155 39.1386
rfemur -26.3001 2.08313 17.4997
rtibia 83.3951
rfoot 10.6285 -3.5391
rtoes -27.3514
lfemur -83.9008 -4.49042 -25.1754
ltibia 101.046
lfoot -7.38601 37.2407
ltoes -8.96024
455
root 1.77422 12.2901 -10.8665 -143.977 2.28086 176.249
lowerback 32.4707 3.52962 -4.50848
upperback 11.739 6.3823 0.213811
thorax -4.61979 4.14392 0.498514
lowerneck -34.5552 -4.26623 -1.82094
upperneck 19.4154 -5.51159 1.84523
head 12.0684 -2.31293 -0.0762464
rclavicle 1.74931e-014 1.59028e-014
rhumerus 13.9283 -16.7793 -76.9233
rradius 28.8003
rwrist 32.1996
rhand -4.33535 -4.14981
rfingers 7.12502
rthumb 21.4319 -32.9844
lclavicle 1.74931e-014 1.59028e-014
lhumerus 0.0656635 -21.1972 79.1919
lradius 72.9607
lwrist -28.8324
lhand -26.2208 8.92412
lfingers 7.12502
lthumb 0.332454 38.9036
rfemur -28.2679 1.5181 17.2832
rtibia 86.7154
rfoot 9.50065 -4.68252
rtoes -27.1841
lfemur -81.7344 -4.84763 -25.3825
ltibia 99.4596
lfoot -6.95227 37.2294
ltoes -8.96452
456
root 1.76996 12.4293 -11.0396 -144.443 2.20968 175.897
lowerback 33.4245 3.38349 -4.65685
upperback 11.1194 6.03223 0.208866
thorax -5.08902 3.97489 0.543115
lowerneck -34.3475 -4.08912 -1.53867
upperneck 19.3471 -5.37188 1.7251
head 11.9926 -2.24985 -0.135252
rclavicle -7.4743e-014 -1.63003e-014
rhumerus 11.3595 -16.0822 -76.6083
rradius 30.4386
rwrist 30.622
rhand -4.56477 -4.53794
rfingers 7.12502
rthumb 21.2115 -33.3974
lclavicle -7.4743e-014 -1.63003e-014
lhumerus -0.0682736 -21.645 79.5396
lradius 73.8879
lwrist -28.8798
lhand -26.0701 8.66963
lfingers 7.12502
lthumb 0.478036 38.6488
rfemur -30.2258 0.931404 16.9722
rtibia 90.0319
rfoot 8.23733 -5.9869
rtoes -27.301
lfemur -79.3481 -5.14577 -25.7187
ltibia 97.7785
lfoot -6.49781 37.2308
ltoes -8.95128
457
root 1.77816 12.5376 -11.1851 -143.282 2.54943 175.753
lowerback 31.4487 3.4564 -5.10205
upperback 11.101 5.83838 0.123029
thorax -4.91058 3.7886 0.966756
lowerneck -34.1372 -3.89411 -1.28913
upperneck 19.2686 -5.18802 1.59555
head 11.913 -2.17142 -0.184197
rclavicle 1.43125e-014 -2.5842e-014
rhumerus 8.7493 -15.4222 -76.3834
rradius 32.0749
rwrist 28.9948
rhand -4.74161 -4.90527
rfingers 7.12502
rthumb 21.0417 -33.7837
lclavicle 1.43125e-014 -2.5842e-014
lhumerus -0.154962 -22.033 79.8879
lradius 74.8287
lwrist -28.9485
lhand -25.907 8.44085
lfingers 7.12502
lthumb 0.635598 38.4196
rfemur -34.8148 0.719589 16.6097
rtibia 93.8514
rfoot 7.29558 -7.34197
rtoes -27.3795
lfemur -79.257 -5.05068 -25.9883
ltibia 96.2676
lfoot -5.74099 36.8934
ltoes -8.92999
458
root 1.7905 12.678 -11.3631 -143.957 2.60867 175.462
lowerback 32.0776 3.37487 -5.50818
upperback 10.967 5.57134 0.174576
thorax -5.35604 3.6617 1.29398
lowerneck -33.9547 -3.65741 -1.02717
upperneck 19.196 -4.93116 1.38907
head 11.8375 -2.07057 -0.251062
rclavicle 3.97569e-014 -1.15295e-014
rhumerus 6.14551 -14.7955 -76.2383
rradius 33.6333
rwrist 27.3859
rhand -4.84953 -5.22823
rfingers 7.12502
rthumb 20.938 -34.1182
lclavicle 3.97569e-014 -1.15295e-014
lhumerus -0.1961 -22.3389 80.2378
lradius 75.7715
lwrist -29.039
lhand -25.74 8.25642
lfingers 7.12502
lthumb 0.796827 38.2347
rfemur -36.766 0.362687 16.4118
rtibia 97.0316
rfoot 6.0064 -8.99282
rtoes -27.3836
lfemur -76.5372 -4.95015 -26.3867
ltibia 94.513
lfoot -5.56637 36.8771
ltoes -8.93365
459
root 1.80486 12.8102 -11.5312 -144.157 2.5842 175.121
lowerback 32.0997 3.23547 -5.88556
upperback 10.7735 5.21304 0.247488
thorax -5.592 3.47214 1.70822
lowerneck -33.7913 -3.38286 -0.755881
upperneck 19.1304 -4.60798 1.11457
head 11.7663 -1.94898 -0.333229
rclavicle 9.54166e-015 -4.17448e-014
rhumerus 3.5505 -14.2001 -76.1495
rradius 35.0827
rwrist 25.8458
rhand -4.89195 -5.48962
rfingers 7.12502
rthumb 20.8972 -34.3841
lclavicle 9.54166e-015 -4.17448e-014
lhumerus -0.210932 -22.5704 80.585
lradius 76.7032
lwrist -29.1623
lhand -25.6129 8.12764
lfingers 7.12502
lthumb 0.919594 38.1054
rfemur -39.4837 -0.0984871 16.2471
rtibia 100.235
rfoot 4.69678 -10.6555
rtoes -27.3719
lfemur -74.473 -4.90388 -26.7488
ltibia 92.7942
lfoot -5.29954 36.7512
ltoes -8.96707
